<svg width="403" height="672" viewBox="0 0 403 672" xmlns="http://www.w3.org/2000/svg" lang="en" xml:lang="en"><rect x="2" y="2" stroke-width="4" rx="0" width="399" height="668" stroke="#ffffff" fill="#ffffff"/><g font-weight="600" font-size="110pt" font-family="Verdana,Geneva,DejaVu Sans,sans-serif" text-rendering="geometricPrecision"><g transform="translate(0, 21)" fill="#24292f"><g transform="translate(15, 0)"><g transform="scale(0.095)"><text x="0" y="132" textLength="1851" lengthAdjust="spacingAndGlyphs">General Stats and Info</text></g></g><g transform="translate(15, 21)"><path fill="#0969da" fill-rule="evenodd" d="M13.25 0a.75.75 0 01.75.75V2h1.25a.75.75 0 010 1.5H14v1.25a.75.75 0 01-1.5 0V3.5h-1.25a.75.75 0 010-1.5h1.25V.75a.75.75 0 01.75-.75zM5.5 4a2 2 0 100 4 2 2 0 000-4zm2.4 4.548a3.5 3.5 0 10-4.799 0 5.527 5.527 0 00-3.1 4.66.75.75 0 101.498.085A4.01 4.01 0 015.5 9.5a4.01 4.01 0 014.001 3.793.75.75 0 101.498-.086 5.527 5.527 0 00-3.1-4.659z"/><g transform="scale(0.095)"><text lengthAdjust="spacingAndGlyphs" textLength="932" x="263" y="132">Year Joined</text><text lengthAdjust="spacingAndGlyphs" textLength="420" x="2116" y="132">2013</text></g></g><g transform="translate(15, 42)"><path fill="#0969da" fill-rule="evenodd" d="M8 .25a.75.75 0 01.673.418l1.882 3.815 4.21.612a.75.75 0 01.416 1.279l-3.046 2.97.719 4.192a.75.75 0 01-1.088.791L8 12.347l-3.766 1.98a.75.75 0 01-1.088-.79l.72-4.194L.818 6.374a.75.75 0 01.416-1.28l4.21-.611L7.327.668A.75.75 0 018 .25zm0 2.445L6.615 5.5a.75.75 0 01-.564.41l-3.097.45 2.24 2.184a.75.75 0 01.216.664l-.528 3.084 2.769-1.456a.75.75 0 01.698 0l2.77 1.456-.53-3.084a.75.75 0 01.216-.664l2.24-2.183-3.096-.45a.75.75 0 01-.564-.41L8 2.694v.001z"/><g transform="scale(0.095)"><text lengthAdjust="spacingAndGlyphs" textLength="1532" x="263" y="132">Most Starred Repo</text><text lengthAdjust="spacingAndGlyphs" textLength="1125" x="2116" y="132">DNS-collector</text></g></g><g transform="translate(15, 63)"><path fill="#0969da" fill-rule="evenodd" d="M4.25 2.5c-1.336 0-2.75 1.164-2.75 3 0 2.15 1.58 4.144 3.365 5.682A20.565 20.565 0 008 13.393a20.561 20.561 0 003.135-2.211C12.92 9.644 14.5 7.65 14.5 5.5c0-1.836-1.414-3-2.75-3-1.373 0-2.609.986-3.029 2.456a.75.75 0 01-1.442 0C6.859 3.486 5.623 2.5 4.25 2.5zM8 14.25l-.345.666-.002-.001-.006-.003-.018-.01a7.643 7.643 0 01-.31-.17 22.075 22.075 0 01-3.434-2.414C2.045 10.731 0 8.35 0 5.5 0 2.836 2.086 1 4.25 1 5.797 1 7.153 1.802 8 3.02 8.847 1.802 10.203 1 11.75 1 13.914 1 16 2.836 16 5.5c0 2.85-2.045 5.231-3.885 6.818a22.08 22.08 0 01-3.744 2.584l-.018.01-.006.003h-.002L8 14.25zm0 0l.345.666a.752.752 0 01-.69 0L8 14.25z"/><g transform="scale(0.095)"><text lengthAdjust="spacingAndGlyphs" textLength="754" x="263" y="132">Sponsors</text><text lengthAdjust="spacingAndGlyphs" textLength="105" x="2116" y="132">2</text></g></g></g><g transform="translate(0, 126)" fill="#24292f"><g transform="translate(15, 0)"><g transform="scale(0.095)"><text x="0" y="132" textLength="1020" lengthAdjust="spacingAndGlyphs">Repositories</text><text x="2116" y="132" textLength="832" lengthAdjust="spacingAndGlyphs">Non-Forks</text><text x="3168" y="132" textLength="206" lengthAdjust="spacingAndGlyphs">All</text></g></g><g transform="translate(15, 21)"><path fill="#0969da" fill-rule="evenodd" d="M2 2.5A2.5 2.5 0 014.5 0h8.75a.75.75 0 01.75.75v12.5a.75.75 0 01-.75.75h-2.5a.75.75 0 110-1.5h1.75v-2h-8a1 1 0 00-.714 1.7.75.75 0 01-1.072 1.05A2.495 2.495 0 012 11.5v-9zm10.5-1V9h-8c-.356 0-.694.074-1 .208V2.5a1 1 0 011-1h8zM5 12.25v3.25a.25.25 0 00.4.2l1.45-1.087a.25.25 0 01.3 0L8.6 15.7a.25.25 0 00.4-.2v-3.25a.25.25 0 00-.25-.25h-3.5a.25.25 0 00-.25.25z"/><g transform="scale(0.095)"><text lengthAdjust="spacingAndGlyphs" textLength="1312" x="263" y="132">My Repositories</text><text lengthAdjust="spacingAndGlyphs" textLength="210" x="2116" y="132">84</text><text lengthAdjust="spacingAndGlyphs" textLength="210" x="3168" y="132">98</text></g></g><g transform="translate(15, 42)"><path fill="#0969da" fill-rule="evenodd" d="M8 .25a.75.75 0 01.673.418l1.882 3.815 4.21.612a.75.75 0 01.416 1.279l-3.046 2.97.719 4.192a.75.75 0 01-1.088.791L8 12.347l-3.766 1.98a.75.75 0 01-1.088-.79l.72-4.194L.818 6.374a.75.75 0 01.416-1.28l4.21-.611L7.327.668A.75.75 0 018 .25zm0 2.445L6.615 5.5a.75.75 0 01-.564.41l-3.097.45 2.24 2.184a.75.75 0 01.216.664l-.528 3.084 2.769-1.456a.75.75 0 01.698 0l2.77 1.456-.53-3.084a.75.75 0 01.216-.664l2.24-2.183-3.096-.45a.75.75 0 01-.564-.41L8 2.694v.001z"/><g transform="scale(0.095)"><text lengthAdjust="spacingAndGlyphs" textLength="874" x="263" y="132">Starred By</text><text lengthAdjust="spacingAndGlyphs" textLength="315" x="2116" y="132">673</text><text lengthAdjust="spacingAndGlyphs" textLength="315" x="3168" y="132">673</text></g></g><g transform="translate(15, 63)"><path fill="#0969da" fill-rule="evenodd" d="M5 3.25a.75.75 0 11-1.5 0 .75.75 0 011.5 0zm0 2.122a2.25 2.25 0 10-1.5 0v.878A2.25 2.25 0 005.75 8.5h1.5v2.128a2.251 2.251 0 101.5 0V8.5h1.5a2.25 2.25 0 002.25-2.25v-.878a2.25 2.25 0 10-1.5 0v.878a.75.75 0 01-.75.75h-4.5A.75.75 0 015 6.25v-.878zm3.75 7.378a.75.75 0 11-1.5 0 .75.75 0 011.5 0zm3-8.75a.75.75 0 100-1.5.75.75 0 000 1.5z"/><g transform="scale(0.095)"><text lengthAdjust="spacingAndGlyphs" textLength="828" x="263" y="132">Forked By</text><text lengthAdjust="spacingAndGlyphs" textLength="315" x="2116" y="132">182</text><text lengthAdjust="spacingAndGlyphs" textLength="315" x="3168" y="132">183</text></g></g><g transform="translate(15, 84)"><path fill="#0969da" fill-rule="evenodd" d="M1.679 7.932c.412-.621 1.242-1.75 2.366-2.717C5.175 4.242 6.527 3.5 8 3.5c1.473 0 2.824.742 3.955 1.715 1.124.967 1.954 2.096 2.366 2.717a.119.119 0 010 .136c-.412.621-1.242 1.75-2.366 2.717C10.825 11.758 9.473 12.5 8 12.5c-1.473 0-2.824-.742-3.955-1.715C2.92 9.818 2.09 8.69 1.679 8.068a.119.119 0 010-.136zM8 2c-1.981 0-3.67.992-4.933 2.078C1.797 5.169.88 6.423.43 7.1a1.619 1.619 0 000 1.798c.45.678 1.367 1.932 2.637 3.024C4.329 13.008 6.019 14 8 14c1.981 0 3.67-.992 4.933-2.078 1.27-1.091 2.187-2.345 2.637-3.023a1.619 1.619 0 000-1.798c-.45-.678-1.367-1.932-2.637-3.023C11.671 2.992 9.981 2 8 2zm0 8a2 2 0 100-4 2 2 0 000 4z"/><g transform="scale(0.095)"><text lengthAdjust="spacingAndGlyphs" textLength="993" x="263" y="132">Watched By</text><text lengthAdjust="spacingAndGlyphs" textLength="315" x="2116" y="132">110</text><text lengthAdjust="spacingAndGlyphs" textLength="315" x="3168" y="132">110</text></g></g></g><g transform="translate(0, 252)" fill="#24292f"><g transform="translate(15, 0)"><g transform="scale(0.095)"><text x="0" y="132" textLength="1112" lengthAdjust="spacingAndGlyphs">Contributions</text><text x="2116" y="132" textLength="774" lengthAdjust="spacingAndGlyphs">Past Year</text><text x="3168" y="132" textLength="414" lengthAdjust="spacingAndGlyphs">Total</text></g></g><g transform="translate(15, 21)"><path fill="#0969da" fill-rule="evenodd" d="M10.5 7.75a2.5 2.5 0 11-5 0 2.5 2.5 0 015 0zm1.43.75a4.002 4.002 0 01-7.86 0H.75a.75.75 0 110-1.5h3.32a4.001 4.001 0 017.86 0h3.32a.75.75 0 110 1.5h-3.32z"/><g transform="scale(0.095)"><text lengthAdjust="spacingAndGlyphs" textLength="734" x="263" y="132">Commits</text><text lengthAdjust="spacingAndGlyphs" textLength="420" x="2116" y="132">1235</text><text lengthAdjust="spacingAndGlyphs" textLength="420" x="3168" y="132">5846</text></g></g><g transform="translate(15, 42)"><path fill="#0969da" d="M8 9.5a1.5 1.5 0 100-3 1.5 1.5 0 000 3z"/><path fill="#0969da" fill-rule="evenodd" d="M8 0a8 8 0 100 16A8 8 0 008 0zM1.5 8a6.5 6.5 0 1113 0 6.5 6.5 0 01-13 0z"/><g transform="scale(0.095)"><text lengthAdjust="spacingAndGlyphs" textLength="512" x="263" y="132">Issues</text><text lengthAdjust="spacingAndGlyphs" textLength="210" x="2116" y="132">51</text><text lengthAdjust="spacingAndGlyphs" textLength="315" x="3168" y="132">172</text></g></g><g transform="translate(15, 63)"><path fill="#0969da" fill-rule="evenodd" d="M7.177 3.073L9.573.677A.25.25 0 0110 .854v4.792a.25.25 0 01-.427.177L7.177 3.427a.25.25 0 010-.354zM3.75 2.5a.75.75 0 100 1.5.75.75 0 000-1.5zm-2.25.75a2.25 2.25 0 113 2.122v5.256a2.251 2.251 0 11-1.5 0V5.372A2.25 2.25 0 011.5 3.25zM11 2.5h-1V4h1a1 1 0 011 1v5.628a2.251 2.251 0 101.5 0V5A2.5 2.5 0 0011 2.5zm1 10.25a.75.75 0 111.5 0 .75.75 0 01-1.5 0zM3.75 12a.75.75 0 100 1.5.75.75 0 000-1.5z"/><g transform="scale(0.095)"><text lengthAdjust="spacingAndGlyphs" textLength="1113" x="263" y="132">Pull Requests</text><text lengthAdjust="spacingAndGlyphs" textLength="315" x="2116" y="132">172</text><text lengthAdjust="spacingAndGlyphs" textLength="315" x="3168" y="132">532</text></g></g><g transform="translate(15, 84)"><path fill="#0969da" fill-rule="evenodd" d="M1 2.5A2.5 2.5 0 013.5 0h8.75a.75.75 0 01.75.75v3.5a.75.75 0 01-1.5 0V1.5h-8a1 1 0 00-1 1v6.708A2.492 2.492 0 013.5 9h3.25a.75.75 0 010 1.5H3.5a1 1 0 100 2h5.75a.75.75 0 010 1.5H3.5A2.5 2.5 0 011 11.5v-9zm13.23 7.79a.75.75 0 001.06-1.06l-2.505-2.505a.75.75 0 00-1.06 0L9.22 9.229a.75.75 0 001.06 1.061l1.225-1.224v6.184a.75.75 0 001.5 0V9.066l1.224 1.224z"/><g transform="scale(0.095)"><text lengthAdjust="spacingAndGlyphs" textLength="1234" x="263" y="132">Contributed To</text><text lengthAdjust="spacingAndGlyphs" textLength="105" x="2116" y="132">9</text></g></g></g><g transform="translate(0, 378)" fill="#24292f"><g transform="translate(15, 0)"><g transform="scale(0.095)"><text x="0" y="132" textLength="3652" lengthAdjust="spacingAndGlyphs">Language Distribution in Public Repositories</text></g></g><g transform="translate(216, 21)"><circle cx="81" cy="81" r="81" fill="#000000"/></g><g transform="translate(217, 22)"><path fill-rule="evenodd" fill="#3572A5" d="M 0.0,80.00000000000001 A 80 80 0 1 1 37.10815449425192 147.52991625280634 L 80,80 Z"/><path fill-rule="evenodd" fill="#00ADD8" d="M 37.10815449425192,147.52991625280634 A 80 80 0 0 1 7.433714096073643 113.6769082623334 L 80,80 Z"/><path fill-rule="evenodd" fill="#41b883" d="M 7.433714096073643,113.6769082623334 A 80 80 0 0 1 3.077346391154194 101.97510777615256 L 80,80 Z"/><path fill-rule="evenodd" fill="#f1e05a" d="M 3.077346391154194,101.97510777615256 A 80 80 0 0 1 1.4186125002711236 94.99885124326039 L 80,80 Z"/><path fill-rule="evenodd" fill="#000080" d="M 1.4186125002711236,94.99885124326039 A 80 80 0 0 1 1.0554522895918836 92.95215761173 L 80,80 Z"/><path fill-rule="evenodd" fill="#C1F12E" d="M 1.0554522895918836,92.95215761173 A 80 80 0 0 1 0.747940004041439 90.91379798223261 L 80,80 Z"/><path fill-rule="evenodd" fill="#dea584" d="M 0.747940004041439,90.91379798223261 A 80 80 0 0 1 0.5001577103648032 88.93168942155575 L 80,80 Z"/><path fill-rule="evenodd" fill="#e34c26" d="M 0.5001577103648032,88.93168942155575 A 80 80 0 0 1 0.3359325261864967 87.32368442299985 L 80,80 Z"/><path fill-rule="evenodd" fill="#89e051" d="M 0.3359325261864967,87.32368442299985 A 80 80 0 0 1 0.2088702109250704 85.77716253735343 L 80,80 Z"/><path fill-rule="evenodd" fill="#663399" d="M 0.2088702109250704,85.77716253735343 A 80 80 0 0 1 0.1403984655017041 84.73751440643267 L 80,80 Z"/><path fill-rule="evenodd" fill="#f34b7d" d="M 0.1403984655017041,84.73751440643267 A 80 80 0 0 1 0.08548384778953277 83.69731093608466 L 80,80 Z"/><path fill-rule="evenodd" fill="#f0c040" d="M 0.08548384778953277,83.69731093608466 A 80 80 0 0 1 0.05124554176684626 82.86298106475462 L 80,80 Z"/><path fill-rule="evenodd" fill="#384d54" d="M 0.05124554176684626,82.86298106475462 A 80 80 0 0 1 0.027681682434689492 82.10435332442265 L 80,80 Z"/><path fill-rule="evenodd" fill="#4F5D95" d="M 0.027681682434689492,82.10435332442265 A 80 80 0 0 1 0.012589363564813993 81.41920388890934 L 80,80 Z"/><path fill-rule="evenodd" fill="#012456" d="M 0.012589363564813993,81.41920388890934 A 80 80 0 0 1 0.004622224947695486 80.85996199140918 L 80,80 Z"/><path fill-rule="evenodd" fill="#959da5" d="M 0.004622224947695486,80.85996199140918 A 80 80 0 0 1 0.0 80.00000000000003 L 80,80 Z"/></g><g transform="translate(15, 21)"><rect x="0.5" y="0.5" rx="2" width="15" height="15" fill="#3572A5" stroke-width="1" stroke="#000000"/><text transform="scale(0.095)" x="263" y="132" textLength="1254" lengthAdjust="spacingAndGlyphs">Python 84.01%</text></g><g transform="translate(15, 42)"><rect x="0.5" y="0.5" rx="2" width="15" height="15" fill="#00ADD8" stroke-width="1" stroke="#000000"/><text transform="scale(0.095)" x="263" y="132" textLength="806" lengthAdjust="spacingAndGlyphs">Go 9.08%</text></g><g transform="translate(15, 63)"><rect x="0.5" y="0.5" rx="2" width="15" height="15" fill="#41b883" stroke-width="1" stroke="#000000"/><text transform="scale(0.095)" x="263" y="132" textLength="897" lengthAdjust="spacingAndGlyphs">Vue 2.49%</text></g><g transform="translate(15, 84)"><rect x="0.5" y="0.5" rx="2" width="15" height="15" fill="#f1e05a" stroke-width="1" stroke="#000000"/><text transform="scale(0.095)" x="263" y="132" textLength="1412" lengthAdjust="spacingAndGlyphs">JavaScript 1.43%</text></g><g transform="translate(15, 105)"><rect x="0.5" y="0.5" rx="2" width="15" height="15" fill="#000080" stroke-width="1" stroke="#000000"/><text transform="scale(0.095)" x="263" y="132" textLength="874" lengthAdjust="spacingAndGlyphs">Lua 0.41%</text></g><g transform="translate(15, 126)"><rect x="0.5" y="0.5" rx="2" width="15" height="15" fill="#C1F12E" stroke-width="1" stroke="#000000"/><text transform="scale(0.095)" x="263" y="132" textLength="1304" lengthAdjust="spacingAndGlyphs">Batchfile 0.41%</text></g><g transform="translate(15, 147)"><rect x="0.5" y="0.5" rx="2" width="15" height="15" fill="#dea584" stroke-width="1" stroke="#000000"/><text transform="scale(0.095)" x="263" y="132" textLength="946" lengthAdjust="spacingAndGlyphs">Rust 0.40%</text></g><g transform="translate(15, 168)"><rect x="0.5" y="0.5" rx="2" width="15" height="15" fill="#e34c26" stroke-width="1" stroke="#000000"/><text transform="scale(0.095)" x="263" y="132" textLength="1036" lengthAdjust="spacingAndGlyphs">HTML 0.32%</text></g><g transform="translate(15, 189)"><rect x="0.5" y="0.5" rx="2" width="15" height="15" fill="#89e051" stroke-width="1" stroke="#000000"/><text transform="scale(0.095)" x="263" y="132" textLength="982" lengthAdjust="spacingAndGlyphs">Shell 0.31%</text><rect x="201.5" y="0.5" rx="2" width="15" height="15" fill="#663399" stroke-width="1" stroke="#000000"/><text transform="scale(0.095)" x="2379" y="132" textLength="903" lengthAdjust="spacingAndGlyphs">CSS 0.21%</text></g><g transform="translate(15, 210)"><rect x="0.5" y="0.5" rx="2" width="15" height="15" fill="#f34b7d" stroke-width="1" stroke="#000000"/><text transform="scale(0.095)" x="263" y="132" textLength="969" lengthAdjust="spacingAndGlyphs">C++ 0.21%</text><rect x="201.5" y="0.5" rx="2" width="15" height="15" fill="#f0c040" stroke-width="1" stroke="#000000"/><text transform="scale(0.095)" x="2379" y="132" textLength="1173" lengthAdjust="spacingAndGlyphs">Smarty 0.17%</text></g><g transform="translate(15, 231)"><rect x="0.5" y="0.5" rx="2" width="15" height="15" fill="#384d54" stroke-width="1" stroke="#000000"/><text transform="scale(0.095)" x="263" y="132" textLength="1414" lengthAdjust="spacingAndGlyphs">Dockerfile 0.15%</text><rect x="201.5" y="0.5" rx="2" width="15" height="15" fill="#4F5D95" stroke-width="1" stroke="#000000"/><text transform="scale(0.095)" x="2379" y="132" textLength="900" lengthAdjust="spacingAndGlyphs">PHP 0.14%</text></g><g transform="translate(15, 252)"><rect x="0.5" y="0.5" rx="2" width="15" height="15" fill="#012456" stroke-width="1" stroke="#000000"/><text transform="scale(0.095)" x="263" y="132" textLength="1486" lengthAdjust="spacingAndGlyphs">PowerShell 0.11%</text><rect x="201.5" y="0.5" rx="2" width="15" height="15" fill="#959da5" stroke-width="1" stroke="#000000"/><text transform="scale(0.095)" x="2379" y="132" textLength="1047" lengthAdjust="spacingAndGlyphs">Other 0.17%</text></g></g></g></svg>